<?xml version="1.0" encoding="iso-8859-1"?>
<!-- Generator: Adobe Illustrator 19.0.0, SVG Export Plug-In . SVG Version: 6.00 Build 0)  -->
<svg xmlns="http://www.w3.org/2000/svg" xmlns:xlink="http://www.w3.org/1999/xlink" version="1.1" id="Capa_1" x="0px" y="0px" viewBox="0 0 488.212 488.212" style="enable-background:new 0 0 488.212 488.212;" xml:space="preserve" width="512px" height="512px">
<g>
	<g>
		<g>
			<path d="M200.106,316.106h16v-16h16v16h16v-16h16c13.255,0,24-10.745,24-24v-16c-0.021-5.923-2.245-11.627-6.24-16     c3.995-4.373,6.219-10.077,6.24-16v-16c0-13.255-10.745-24-24-24h-16v-16h-16v16h-16v-16h-16v16h-16v16h8v80h-8v16h16V316.106z      M208.106,204.106h56c4.418,0,8,3.582,8,8v16c0,4.418-3.582,8-8,8h-56V204.106z M208.106,252.106h56c4.418,0,8,3.582,8,8v16     c0,4.418-3.582,8-8,8h-56V252.106z" fill="#006ab5"/>
			<path d="M464.106,156.106c-10.134,0.042-19.15,6.445-22.528,16h-17.472v-24c0-4.418-3.582-8-8-8h-56v-8c0-4.418-3.582-8-8-8v-64     h89.472c4.418,12.497,18.131,19.046,30.627,14.627c12.497-4.418,19.046-18.131,14.627-30.627     c-4.418-12.497-18.131-19.046-30.627-14.627c-6.835,2.416-12.211,7.793-14.627,14.627h-97.472c-4.418,0-8,3.582-8,8v72h-24v-56     c0-4.418-3.582-8-8-8h-8v-9.472c12.497-4.418,19.046-18.131,14.627-30.627S292.603,0.961,280.106,5.379     c-12.497,4.418-19.046,18.131-14.627,30.627c2.416,6.835,7.793,12.211,14.627,14.627v17.472c0,4.418,3.582,8,8,8h8v48h-64V50.634     c12.497-4.418,19.046-18.131,14.627-30.627S228.603,0.961,216.106,5.379c-12.497,4.418-19.046,18.131-14.627,30.627     c2.416,6.835,7.793,12.211,14.627,14.627v73.472h-48v-48c0-4.418-3.582-8-8-8h-40V50.634     c12.497-4.418,19.046-18.131,14.627-30.627S116.603,0.961,104.106,5.379C91.609,9.797,85.06,23.51,89.479,36.007     c2.416,6.835,7.793,12.211,14.627,14.627v25.472c0,4.418,3.582,8,8,8h40v40h-24c-4.418,0-8,3.582-8,8h-32v-48     c0-4.418-3.582-8-8-8H46.634C42.216,63.609,28.503,57.06,16.007,61.479S-3.039,79.609,1.379,92.106     c4.418,12.497,18.131,19.046,30.627,14.627c6.835-2.416,12.211-7.793,14.627-14.627h25.472v48c0,4.418,3.582,8,8,8h40v24H46.634     c-4.418-12.497-18.131-19.046-30.627-14.627s-19.046,18.131-14.627,30.627c4.418,12.497,18.131,19.046,30.627,14.627     c6.835-2.416,12.211-7.793,14.627-14.627h73.472v96h-32v-40c0-4.418-3.582-8-8-8H46.634     c-4.418-12.497-18.131-19.046-30.627-14.627s-19.046,18.131-14.627,30.627c4.418,12.497,18.131,19.046,30.627,14.627     c6.835-2.416,12.211-7.793,14.627-14.627h25.472v40c0,4.418,3.582,8,8,8h40v32h-40c-4.418,0-8,3.582-8,8v64H46.634     c-4.418-12.497-18.131-19.046-30.627-14.627s-19.046,18.131-14.627,30.627c4.418,12.497,18.131,19.046,30.627,14.627     c6.835-2.416,12.211-7.793,14.627-14.627h33.472c4.418,0,8-3.582,8-8v-64h32v8c0,4.418,3.582,8,8,8h8v73.472     c-12.497,4.418-19.046,18.131-14.627,30.627c4.418,12.497,18.131,19.046,30.627,14.627s19.046-18.131,14.627-30.627     c-2.416-6.835-7.793-12.211-14.627-14.627v-73.472h112v40h-40c-4.418,0-8,3.582-8,8v25.472     c-12.497,4.418-19.046,18.131-14.627,30.627c4.418,12.497,18.131,19.046,30.627,14.627s19.046-18.131,14.627-30.627     c-2.416-6.835-7.793-12.211-14.627-14.627v-17.472h40c4.418,0,8-3.582,8-8v-48h48v48c0,4.418,3.582,8,8,8h56v17.472     c-12.497,4.418-19.046,18.131-14.627,30.627c4.418,12.497,18.131,19.046,30.627,14.627s19.046-18.131,14.627-30.627     c-2.416-6.835-7.793-12.211-14.627-14.627v-25.472c0-4.418-3.582-8-8-8h-56v-40h8c4.418,0,8-3.582,8-8v-32h32v40     c0,4.418,3.582,8,8,8h33.472c4.418,12.497,18.131,19.046,30.627,14.627s19.046-18.131,14.627-30.627     c-4.418-12.497-18.131-19.046-30.627-14.627c-6.835,2.416-12.211,7.793-14.627,14.627h-25.472v-40c0-4.418-3.582-8-8-8h-40v-56     h73.472c4.418,12.497,18.131,19.046,30.627,14.627s19.046-18.131,14.627-30.627c-4.418-12.497-18.131-19.046-30.627-14.627     c-6.835,2.416-12.211,7.793-14.627,14.627h-73.472v-80h48v24c0,4.418,3.582,8,8,8h25.472     c4.44,12.465,18.145,18.971,30.611,14.531c12.465-4.44,18.971-18.145,14.531-30.611     C483.314,162.466,474.255,156.088,464.106,156.106z M464.106,44.106c4.418,0,8,3.582,8,8s-3.582,8-8,8s-8-3.582-8-8     S459.688,44.106,464.106,44.106z M112.106,36.106c-4.418,0-8-3.582-8-8s3.582-8,8-8s8,3.582,8,8S116.524,36.106,112.106,36.106z      M24.106,92.106c-4.418,0-8-3.582-8-8s3.582-8,8-8s8,3.582,8,8S28.524,92.106,24.106,92.106z M24.106,188.106     c-4.418,0-8-3.582-8-8s3.582-8,8-8s8,3.582,8,8S28.524,188.106,24.106,188.106z M24.106,252.106c-4.418,0-8-3.582-8-8     s3.582-8,8-8s8,3.582,8,8S28.524,252.106,24.106,252.106z M24.106,420.106c-4.418,0-8-3.582-8-8s3.582-8,8-8s8,3.582,8,8     S28.524,420.106,24.106,420.106z M224.106,468.106c-4.418,0-8-3.582-8-8s3.582-8,8-8s8,3.582,8,8     S228.524,468.106,224.106,468.106z M400.106,452.106c4.418,0,8,3.582,8,8s-3.582,8-8,8s-8-3.582-8-8     S395.688,452.106,400.106,452.106z M288.106,36.106c-4.418,0-8-3.582-8-8s3.582-8,8-8s8,3.582,8,8S292.524,36.106,288.106,36.106     z M224.106,20.106c4.418,0,8,3.582,8,8s-3.582,8-8,8s-8-3.582-8-8S219.688,20.106,224.106,20.106z M144.106,468.106     c-4.418,0-8-3.582-8-8s3.582-8,8-8s8,3.582,8,8S148.524,468.106,144.106,468.106z M344.106,348.106h-208v-208h208V348.106z      M456.106,356.106c4.418,0,8,3.582,8,8s-3.582,8-8,8s-8-3.582-8-8S451.688,356.106,456.106,356.106z M456.106,236.106     c4.418,0,8,3.582,8,8s-3.582,8-8,8s-8-3.582-8-8S451.688,236.106,456.106,236.106z M464.106,188.106c-4.418,0-8-3.582-8-8     s3.582-8,8-8s8,3.582,8,8S468.524,188.106,464.106,188.106z" fill="#006ab5"/>
		</g>
	</g>
</g>
<g>
</g>
<g>
</g>
<g>
</g>
<g>
</g>
<g>
</g>
<g>
</g>
<g>
</g>
<g>
</g>
<g>
</g>
<g>
</g>
<g>
</g>
<g>
</g>
<g>
</g>
<g>
</g>
<g>
</g>
</svg>
